{
  "source": "C:\\Users\\Peter\\Desktop\\stuff\\MIUN\\quantitative_research\\video_compression\\videos\\BVI-HD\\BVI-HD_CDVL_videos\\ORIG\\Toys_1920x1080_30fps.mp4",
  "output": "C:\\Users\\Peter\\Desktop\\stuff\\MIUN\\quantitative_research\\video_compression\\compressed_videos\\BVI-HD\\vp9\\4\\Toys_1920x1080_30fps_vp9.webm",
  "codec": "vp9",
  "ok": "Input #0, mov,mp4,m4a,3gp,3g2,mj2, from 'C:\\Users\\Peter\\Desktop\\stuff\\MIUN\\quantitative_research\\video_compression\\videos\\BVI-HD\\BVI-HD_CDVL_videos\\ORIG\\Toys_1920x1080_30fps.mp4':\n  Metadata:\n    major_brand     : isom\n    minor_version   : 512\n    compatible_brands: isomiso2avc1mp41\n    encoder         : Lavf54.28.101\n  Duration: 00:00:05.00, start: 0.000000, bitrate: 270887 kb/s\n  Stream #0:0[0x1](und): Video: h264 (High 4:4:4 Predictive) (avc1 / 0x31637661), yuv420p(progressive), 1920x1080, 270883 kb/s, 30 fps, 30 tbr, 30 tbn (default)\n    Metadata:\n      handler_name    : VideoHandler\n      vendor_id       : [0][0][0][0]\n[out#0/webm @ 000001e030aa9280] Codec AVOption b:a (set bitrate (in bits/s)) has not been used for any stream. The most likely reason is either wrong type (e.g. a video option with no video streams) or that it is a private option of some decoder which was not actually used for any stream.\nStream mapping:\n  Stream #0:0 -> #0:0 (h264 (native) -> vp9 (libvpx-vp9))\nPress [q] to stop, [?] for help\n[libvpx-vp9 @ 000001e0315b00c0] v1.15.2-100-g40561f514\nOutput #0, webm, to 'C:\\Users\\Peter\\Desktop\\stuff\\MIUN\\quantitative_research\\video_compression\\compressed_videos\\BVI-HD\\vp9\\4\\Toys_1920x1080_30fps_vp9.webm':\n  Metadata:\n    major_brand     : isom\n    minor_version   : 512\n    compatible_brands: isomiso2avc1mp41\n    encoder         : Lavf62.3.100\n  Stream #0:0(und): Video: vp9, yuv420p(tv, progressive), 1920x1080, q=2-31, 4000 kb/s, 30 fps, 1k tbn (default)\n    Metadata:\n      encoder         : Lavc62.11.100 libvpx-vp9\n      handler_name    : VideoHandler\n      vendor_id       : [0][0][0][0]\n    Side data:\n      cpb: bitrate max/min/avg: 0/0/0 buffer size: 4000000 vbv_delay: N/A\nframe=    0 fps=0.0 q=0.0 size=       0KiB time=N/A bitrate=N/A speed=N/A elapsed=0:00:00.53    \nframe=    4 fps=3.4 q=50.0 size=       1KiB time=00:00:00.13 bitrate=  38.0kbits/s speed=0.113x elapsed=0:00:01.18    \nframe=    9 fps=5.2 q=45.0 size=       1KiB time=00:00:00.30 bitrate=  16.9kbits/s speed=0.173x elapsed=0:00:01.73    \nframe=   13 fps=5.7 q=43.0 size=       1KiB time=00:00:00.43 bitrate=  11.7kbits/s speed=0.189x elapsed=0:00:02.28    \nframe=   17 fps=6.0 q=43.0 size=       1KiB time=00:00:00.56 bitrate=   9.0kbits/s speed=0.201x elapsed=0:00:02.81    \nframe=   20 fps=6.0 q=44.0 size=       1KiB time=00:00:00.66 bitrate=   7.6kbits/s speed= 0.2x elapsed=0:00:03.33    \nframe=   25 fps=6.5 q=42.0 size=       1KiB time=00:00:00.83 bitrate=   6.1kbits/s speed=0.216x elapsed=0:00:03.85    \nframe=   29 fps=6.6 q=43.0 size=       1KiB time=00:00:00.96 bitrate=   5.2kbits/s speed=0.22x elapsed=0:00:04.39    \nframe=   33 fps=6.7 q=41.0 size=       1KiB time=00:00:01.10 bitrate=   4.6kbits/s speed=0.224x elapsed=0:00:04.91    \nframe=   37 fps=6.8 q=42.0 size=       1KiB time=00:00:01.23 bitrate=   4.1kbits/s speed=0.226x elapsed=0:00:05.46    \nframe=   41 fps=6.8 q=35.0 size=       1KiB time=00:00:01.36 bitrate=   3.7kbits/s speed=0.228x elapsed=0:00:06.00    \nframe=   45 fps=6.9 q=41.0 size=       1KiB time=00:00:01.50 bitrate=   3.4kbits/s speed=0.23x elapsed=0:00:06.51    \nframe=   49 fps=6.9 q=40.0 size=       1KiB time=00:00:01.63 bitrate=   3.1kbits/s speed=0.231x elapsed=0:00:07.07    \nframe=   52 fps=6.8 q=41.0 size=       1KiB time=00:00:01.73 bitrate=   2.9kbits/s speed=0.228x elapsed=0:00:07.60    \nframe=   56 fps=6.9 q=41.0 size=       1KiB time=00:00:01.86 bitrate=   2.7kbits/s speed=0.23x elapsed=0:00:08.11    \nframe=   60 fps=6.9 q=41.0 size=       1KiB time=00:00:02.00 bitrate=   2.5kbits/s speed=0.231x elapsed=0:00:08.64    \nframe=   64 fps=7.0 q=41.0 size=       1KiB time=00:00:02.13 bitrate=   2.4kbits/s speed=0.232x elapsed=0:00:09.17    \nframe=   68 fps=7.0 q=40.0 size=       1KiB time=00:00:02.26 bitrate=   2.2kbits/s speed=0.233x elapsed=0:00:09.73    \nframe=   72 fps=7.0 q=41.0 size=       1KiB time=00:00:02.40 bitrate=   2.1kbits/s speed=0.234x elapsed=0:00:10.23    \nframe=   76 fps=7.1 q=41.0 size=       1KiB time=00:00:02.53 bitrate=   2.0kbits/s speed=0.235x elapsed=0:00:10.75    \nframe=   80 fps=7.1 q=40.0 size=       1KiB time=00:00:02.66 bitrate=   1.9kbits/s speed=0.236x elapsed=0:00:11.29    \nframe=   84 fps=7.1 q=41.0 size=       1KiB time=00:00:02.80 bitrate=   1.8kbits/s speed=0.237x elapsed=0:00:11.82    \nframe=   88 fps=7.1 q=41.0 size=       1KiB time=00:00:02.93 bitrate=   1.7kbits/s speed=0.238x elapsed=0:00:12.33    \nframe=   93 fps=7.2 q=40.0 size=       1KiB time=00:00:03.06 bitrate=   1.7kbits/s speed=0.238x elapsed=0:00:12.86    \nframe=   96 fps=7.2 q=40.0 size=       1KiB time=00:00:03.20 bitrate=   1.6kbits/s speed=0.239x elapsed=0:00:13.38    \nframe=  100 fps=7.2 q=40.0 size=       1KiB time=00:00:03.33 bitrate=   1.5kbits/s speed=0.24x elapsed=0:00:13.90    \nframe=  105 fps=7.3 q=40.0 size=       1KiB time=00:00:03.50 bitrate=   1.4kbits/s speed=0.243x elapsed=0:00:14.43    \nframe=  109 fps=7.3 q=39.0 size=       1KiB time=00:00:03.63 bitrate=   1.4kbits/s speed=0.243x elapsed=0:00:14.95    \nframe=  114 fps=7.4 q=41.0 size=       1KiB time=00:00:03.80 bitrate=   1.3kbits/s speed=0.245x elapsed=0:00:15.49    \nframe=  118 fps=7.4 q=40.0 size=       1KiB time=00:00:03.93 bitrate=   1.3kbits/s speed=0.246x elapsed=0:00:16.00    \nframe=  122 fps=7.4 q=41.0 size=       1KiB time=00:00:04.06 bitrate=   1.2kbits/s speed=0.246x elapsed=0:00:16.53    \nframe=  126 fps=7.4 q=39.0 size=       1KiB time=00:00:04.20 bitrate=   1.2kbits/s speed=0.246x elapsed=0:00:17.06    \nframe=  126 fps=7.2 q=39.0 size=       1KiB time=00:00:04.20 bitrate=   1.2kbits/s speed=0.239x elapsed=0:00:17.57    \nframe=  126 fps=7.0 q=39.0 size=       1KiB time=00:00:04.20 bitrate=   1.2kbits/s speed=0.232x elapsed=0:00:18.11    \nframe=  126 fps=6.7 q=39.0 size=       1KiB time=00:00:04.20 bitrate=   1.2kbits/s speed=0.225x elapsed=0:00:18.67    \nframe=  126 fps=6.6 q=39.0 size=       1KiB time=00:00:04.20 bitrate=   1.2kbits/s speed=0.218x elapsed=0:00:19.22    \nframe=  126 fps=6.4 q=39.0 size=       1KiB time=00:00:04.20 bitrate=   1.2kbits/s speed=0.212x elapsed=0:00:19.82    \nframe=  126 fps=6.2 q=39.0 size=       1KiB time=00:00:04.20 bitrate=   1.2kbits/s speed=0.206x elapsed=0:00:20.43    \nframe=  126 fps=6.0 q=39.0 size=       1KiB time=00:00:04.20 bitrate=   1.2kbits/s speed=0.199x elapsed=0:00:21.06    \n[out#0/webm @ 000001e030aa9280] video:2681KiB audio:0KiB subtitle:0KiB other streams:0KiB global headers:0KiB muxing overhead: 0.064507%\nframe=  150 fps=7.1 q=40.0 Lsize=    2683KiB time=00:00:05.00 bitrate=4395.5kbits/s speed=0.236x elapsed=0:00:21.20    \n",
  "seconds": 21.802035093307495,
  "probe_out": {}
}